<svg width="31" height="19" viewBox="0 0 31 19" fill="none" xmlns="http://www.w3.org/2000/svg">
<path d="M26.8478 8.46106C27.7926 7.84326 29.324 7.84323 30.2687 8.46106C31.2132 9.07866 31.2132 10.0796 30.2687 10.6974L18.2941 18.5284C17.6358 18.9589 16.6927 19.0886 15.8615 18.9191C15.0711 19.0469 14.2009 18.9108 13.5832 18.507L1.68866 10.7286C0.750735 10.1153 0.750807 9.12078 1.68866 8.50696C2.62705 7.89333 4.14869 7.89334 5.0871 8.50696L15.9318 15.5978L26.8478 8.46106ZM23.9543 0.337036C24.6471 -0.112085 25.7712 -0.112085 26.4641 0.337036C27.1565 0.786357 27.1565 1.51472 26.4641 1.96399L17.6828 7.65833C17.2 7.97159 16.5081 8.06582 15.8986 7.9425C15.3189 8.03556 14.6808 7.93747 14.2277 7.64368L5.50507 1.98645C4.81716 1.53975 4.81702 0.816422 5.50507 0.370239C6.19312 -0.0761703 7.30908 -0.0760835 7.99725 0.370239L15.9494 5.52747L23.9543 0.337036Z" fill="white"/>
</svg>
